<svg xmlns="http://www.w3.org/2000/svg" xmlns:xlink="http://www.w3.org/1999/xlink" contentStyleType="text/css" data-diagram-type="DESCRIPTION" height="1173px" preserveAspectRatio="none" style="width:1821px;height:1173px;background:#FFFFFF;" version="1.1" viewBox="0 0 1821 1173" width="1821px" zoomAndPan="magnify"><title>Comunica&#231;&#227;o MAUI Desktop com Microservi&#231;os .NET Core</title><defs/><g><g class="title" data-source-line="1"><text fill="#000000" font-family="sans-serif" font-size="14" font-weight="bold" lengthAdjust="spacing" textLength="453.4072" x="677.2155" y="22.9951">Comunica&#231;&#227;o MAUI Desktop com Microservi&#231;os .NET Core</text></g><!--cluster MAUI Desktop Application--><g class="cluster" data-entity="MAUI Desktop Application" data-source-line="3" data-uid="ent0002" id="cluster_MAUI Desktop Application"><path d="M800.6237,43.2969 L1007.1052,43.2969 A3.75,3.75 0 0 1 1009.6052,45.7969 L1016.6052,65.5938 L1390.6237,65.5938 A2.5,2.5 0 0 1 1393.1237,68.0938 L1393.1237,806.0569 A2.5,2.5 0 0 1 1390.6237,808.5569 L800.6237,808.5569 A2.5,2.5 0 0 1 798.1237,806.0569 L798.1237,45.7969 A2.5,2.5 0 0 1 800.6237,43.2969" fill="none" style="stroke:#000000;stroke-width:1.5;"/><line style="stroke:#000000;stroke-width:1.5;" x1="798.1237" x2="1016.6052" y1="65.5938" y2="65.5938"/><text fill="#000000" font-family="sans-serif" font-size="14" font-weight="bold" lengthAdjust="spacing" textLength="205.4814" x="802.1237" y="58.292">MAUI Desktop Application</text></g><!--cluster Gateway--><g class="cluster" data-entity="Gateway" data-source-line="14" data-uid="ent0011" id="cluster_Gateway"><path d="M48.3224,595.4826 C68.5925,574.6018 87.9237,569.0636 103.5822,600.366 C118.0153,580.6212 139.8109,575.4852 152.7882,601.9172 C161.5997,576.9132 186.1209,574.5006 202.2996,593.6573 C218.9539,570.8293 234.0097,575.9618 248.4496,596.0391 C262.537,572.8029 282.0224,574.0805 298.3345,593.4332 C316.0982,564.634 342.0817,567.5331 353.9125,598.9124 C366.352,575.6544 384.9369,578.3091 399.4419,596.6518 C417.7129,570.6612 435.556,566.9282 454.3426,596.1391 C469.8244,570.2436 487.5802,572.1932 504.1791,594.9959 C517.2526,571.3726 535.4021,568.313 550.3905,593.1707 C568.9876,570.4181 588.095,569.4308 602.1124,597.8038 C621.5466,573.9029 640.4053,572.3196 655.1582,602.4037 C663.6925,581.4825 685.8598,574.1976 700.9181,595.2996 C720.517,573.6751 744.5907,571.3693 758.1237,601.9469 C761.464,600.5759 763.1409,601.5317 763.6634,605.1044 C789.7936,617.0565 792.263,645.4811 769.2158,662.2143 C790.9135,678.8681 787.884,693.814 766.2651,707.655 C796.6593,721.3948 790.9455,746.8516 769.2418,763.3746 C790.9754,790.0524 779.4005,807.0187 751.1237,816.7069 C755.7704,815.4536 759.0462,818.1249 757.3952,823.0744 C740.7696,846.7064 716.5076,851.4633 701.0997,821.7883 C689.8074,843.1098 670.4395,843.9366 658.5697,822.3608 C645.6148,846.0264 621.8373,846.0081 606.4777,825.1758 C591.2152,851.8628 568.8281,853.1187 550.3337,828.7283 C536.0789,851.8533 514.0789,850.0117 503.2074,825.389 C486.5861,854.5924 464.8436,849.7756 449.3111,824.3155 C436.7439,844.9114 413.3116,851.6097 399.9038,825.1991 C384.2578,847.9037 370.1826,851.7852 352.9298,826.7811 C336.0229,854.1594 313.6038,846.9283 300.5832,822.8292 C291.0256,847.5325 268.5641,846.87 254.202,827.9358 C237.3882,854.375 215.508,853.2775 199.0403,827.5697 C181.2409,848.8302 167.2895,841.6939 155.5184,821.275 C140.4352,843.2714 114.9711,849.6948 101.2152,819.8837 C80.0068,842.2748 51.8827,838.8687 39.1237,809.7069 C43.4254,809.2089 45.1223,811.2136 44.5432,815.379 C20.0837,805.078 15.145,781.6202 38.3273,765.3946 C10.317,749.4323 10.829,727.7561 32.706,706.9922 C11.2546,692.8964 14.1712,669.3802 36.7835,659.0306 C6,632.0294 12.4054,612.547 46.1237,594.9469 C47.0595,593.9832 47.9121,594.2897 48.3224,595.4826" fill="none" style="stroke:#181818;stroke-width:1;"/><text fill="#000000" font-family="sans-serif" font-size="14" font-weight="bold" lengthAdjust="spacing" textLength="99.8115" x="348.718" y="612.942">API Gateway</text></g><!--cluster Microservices Ecosystem--><g class="cluster" data-entity="Microservices Ecosystem" data-source-line="21" data-uid="ent0016" id="cluster_Microservices Ecosystem"><path d="M207.6237,881.7069 L405.8815,881.7069 A3.75,3.75 0 0 1 408.3815,884.2069 L415.3815,904.0038 L1162.6237,904.0038 A2.5,2.5 0 0 1 1165.1237,906.5038 L1165.1237,992.7969 A2.5,2.5 0 0 1 1162.6237,995.2969 L207.6237,995.2969 A2.5,2.5 0 0 1 205.1237,992.7969 L205.1237,884.2069 A2.5,2.5 0 0 1 207.6237,881.7069" fill="none" style="stroke:#000000;stroke-width:1.5;"/><line style="stroke:#000000;stroke-width:1.5;" x1="205.1237" x2="415.3815" y1="904.0038" y2="904.0038"/><text fill="#000000" font-family="sans-serif" font-size="14" font-weight="bold" lengthAdjust="spacing" textLength="197.2578" x="209.1237" y="896.702">Microservices Ecosystem</text></g><!--cluster Databases--><g class="cluster" data-entity="Databases" data-source-line="29" data-uid="ent0022" id="cluster_Databases"><path d="M506.1237,1054.2969 C506.1237,1044.2969 812.1237,1044.2969 812.1237,1044.2969 C812.1237,1044.2969 1118.1237,1044.2969 1118.1237,1054.2969 L1118.1237,1146.5969 C1118.1237,1156.5969 812.1237,1156.5969 812.1237,1156.5969 C812.1237,1156.5969 506.1237,1156.5969 506.1237,1146.5969 L506.1237,1054.2969" fill="none" style="stroke:#181818;stroke-width:1;"/><path d="M506.1237,1054.2969 C506.1237,1064.2969 812.1237,1064.2969 812.1237,1064.2969 C812.1237,1064.2969 1118.1237,1064.2969 1118.1237,1054.2969" fill="none" style="stroke:#181818;stroke-width:1;"/><text fill="#000000" font-family="sans-serif" font-size="14" font-weight="bold" lengthAdjust="spacing" textLength="82.8379" x="770.7048" y="1079.292">Databases</text></g><!--entity Views--><g class="entity" data-entity="Views" data-source-line="4" data-uid="ent0003" id="entity_Views"><rect fill="#F1F1F1" height="46.2969" rx="2.5" ry="2.5" style="stroke:#181818;stroke-width:0.5;" width="80.8242" x="1062.7137" y="78.2969"/><rect fill="#F1F1F1" height="10" style="stroke:#181818;stroke-width:0.5;" width="15" x="1123.5379" y="83.2969"/><rect fill="#F1F1F1" height="2" style="stroke:#181818;stroke-width:0.5;" width="4" x="1121.5379" y="85.2969"/><rect fill="#F1F1F1" height="2" style="stroke:#181818;stroke-width:0.5;" width="4" x="1121.5379" y="89.2969"/><text fill="#000000" font-family="sans-serif" font-size="14" lengthAdjust="spacing" textLength="40.8242" x="1077.7137" y="111.292">Views</text></g><!--entity ViewModels--><g class="entity" data-entity="ViewModels" data-source-line="5" data-uid="ent0004" id="entity_ViewModels"><rect fill="#F1F1F1" height="46.2969" rx="2.5" ry="2.5" style="stroke:#181818;stroke-width:0.5;" width="122.8584" x="1041.6937" y="201.5869"/><rect fill="#F1F1F1" height="10" style="stroke:#181818;stroke-width:0.5;" width="15" x="1144.5521" y="206.5869"/><rect fill="#F1F1F1" height="2" style="stroke:#181818;stroke-width:0.5;" width="4" x="1142.5521" y="208.5869"/><rect fill="#F1F1F1" height="2" style="stroke:#181818;stroke-width:0.5;" width="4" x="1142.5521" y="212.5869"/><text fill="#000000" font-family="sans-serif" font-size="14" lengthAdjust="spacing" textLength="82.8584" x="1056.6937" y="234.582">ViewModels</text></g><!--entity AppServices--><g class="entity" data-entity="AppServices" data-source-line="6" data-uid="ent0005" id="entity_AppServices"><rect fill="#F1F1F1" height="46.2969" rx="2.5" ry="2.5" style="stroke:#181818;stroke-width:0.5;" width="181.709" x="1012.2737" y="324.8869"/><rect fill="#F1F1F1" height="10" style="stroke:#181818;stroke-width:0.5;" width="15" x="1173.9827" y="329.8869"/><rect fill="#F1F1F1" height="2" style="stroke:#181818;stroke-width:0.5;" width="4" x="1171.9827" y="331.8869"/><rect fill="#F1F1F1" height="2" style="stroke:#181818;stroke-width:0.5;" width="4" x="1171.9827" y="335.8869"/><text fill="#000000" font-family="sans-serif" font-size="14" lengthAdjust="spacing" textLength="141.709" x="1027.2737" y="357.882">Application Services</text></g><!--entity ApiLayer--><g class="entity" data-entity="ApiLayer" data-source-line="7" data-uid="ent0006" id="entity_ApiLayer"><rect fill="#F1F1F1" height="46.2969" rx="2.5" ry="2.5" style="stroke:#181818;stroke-width:0.5;" width="161.8232" x="1022.2137" y="448.1869"/><rect fill="#F1F1F1" height="10" style="stroke:#181818;stroke-width:0.5;" width="15" x="1164.037" y="453.1869"/><rect fill="#F1F1F1" height="2" style="stroke:#181818;stroke-width:0.5;" width="4" x="1162.037" y="455.1869"/><rect fill="#F1F1F1" height="2" style="stroke:#181818;stroke-width:0.5;" width="4" x="1162.037" y="459.1869"/><text fill="#000000" font-family="sans-serif" font-size="14" lengthAdjust="spacing" textLength="121.8232" x="1037.2137" y="481.182">API Service Layer</text></g><!--entity HttpClients--><g class="entity" data-entity="HttpClients" data-source-line="8" data-uid="ent0007" id="entity_HttpClients"><rect fill="#F1F1F1" height="46.2969" rx="2.5" ry="2.5" style="stroke:#181818;stroke-width:0.5;" width="128.3477" x="1038.9537" y="591.1669"/><rect fill="#F1F1F1" height="10" style="stroke:#181818;stroke-width:0.5;" width="15" x="1147.3014" y="596.1669"/><rect fill="#F1F1F1" height="2" style="stroke:#181818;stroke-width:0.5;" width="4" x="1145.3014" y="598.1669"/><rect fill="#F1F1F1" height="2" style="stroke:#181818;stroke-width:0.5;" width="4" x="1145.3014" y="602.1669"/><text fill="#000000" font-family="sans-serif" font-size="14" lengthAdjust="spacing" textLength="88.3477" x="1053.9537" y="624.162">HTTP Clients</text></g><!--entity AuthManager--><g class="entity" data-entity="AuthManager" data-source-line="9" data-uid="ent0008" id="entity_AuthManager"><rect fill="#F1F1F1" height="46.2969" rx="2.5" ry="2.5" style="stroke:#181818;stroke-width:0.5;" width="208.5879" x="998.8337" y="746.2569"/><rect fill="#F1F1F1" height="10" style="stroke:#181818;stroke-width:0.5;" width="15" x="1187.4216" y="751.2569"/><rect fill="#F1F1F1" height="2" style="stroke:#181818;stroke-width:0.5;" width="4" x="1185.4216" y="753.2569"/><rect fill="#F1F1F1" height="2" style="stroke:#181818;stroke-width:0.5;" width="4" x="1185.4216" y="757.2569"/><text fill="#000000" font-family="sans-serif" font-size="14" lengthAdjust="spacing" textLength="168.5879" x="1013.8337" y="779.252">Authentication Manager</text></g><!--entity CacheManager--><g class="entity" data-entity="CacheManager" data-source-line="10" data-uid="ent0009" id="entity_CacheManager"><rect fill="#F1F1F1" height="46.2969" rx="2.5" ry="2.5" style="stroke:#181818;stroke-width:0.5;" width="149.3545" x="814.4437" y="746.2569"/><rect fill="#F1F1F1" height="10" style="stroke:#181818;stroke-width:0.5;" width="15" x="943.7982" y="751.2569"/><rect fill="#F1F1F1" height="2" style="stroke:#181818;stroke-width:0.5;" width="4" x="941.7982" y="753.2569"/><rect fill="#F1F1F1" height="2" style="stroke:#181818;stroke-width:0.5;" width="4" x="941.7982" y="757.2569"/><text fill="#000000" font-family="sans-serif" font-size="14" lengthAdjust="spacing" textLength="109.3545" x="829.4437" y="779.252">Cache Manager</text></g><!--entity RetryPolicies--><g class="entity" data-entity="RetryPolicies" data-source-line="11" data-uid="ent0010" id="entity_RetryPolicies"><rect fill="#F1F1F1" height="46.2969" rx="2.5" ry="2.5" style="stroke:#181818;stroke-width:0.5;" width="134.6025" x="1242.8237" y="746.2569"/><rect fill="#F1F1F1" height="10" style="stroke:#181818;stroke-width:0.5;" width="15" x="1357.4263" y="751.2569"/><rect fill="#F1F1F1" height="2" style="stroke:#181818;stroke-width:0.5;" width="4" x="1355.4263" y="753.2569"/><rect fill="#F1F1F1" height="2" style="stroke:#181818;stroke-width:0.5;" width="4" x="1355.4263" y="757.2569"/><text fill="#000000" font-family="sans-serif" font-size="14" lengthAdjust="spacing" textLength="94.6025" x="1257.8237" y="779.252">Retry Policies</text></g><!--entity LB--><g class="entity" data-entity="LB" data-source-line="15" data-uid="ent0012" id="entity_LB"><rect fill="#F1F1F1" height="46.2969" rx="2.5" ry="2.5" style="stroke:#181818;stroke-width:0.5;" width="139.873" x="602.1837" y="746.2569"/><rect fill="#F1F1F1" height="10" style="stroke:#181818;stroke-width:0.5;" width="15" x="722.0568" y="751.2569"/><rect fill="#F1F1F1" height="2" style="stroke:#181818;stroke-width:0.5;" width="4" x="720.0568" y="753.2569"/><rect fill="#F1F1F1" height="2" style="stroke:#181818;stroke-width:0.5;" width="4" x="720.0568" y="757.2569"/><text fill="#000000" font-family="sans-serif" font-size="14" lengthAdjust="spacing" textLength="99.873" x="617.1837" y="779.252">Load Balancer</text></g><!--entity GatewayAuth--><g class="entity" data-entity="GatewayAuth" data-source-line="16" data-uid="ent0013" id="entity_GatewayAuth"><rect fill="#F1F1F1" height="62.5938" rx="2.5" ry="2.5" style="stroke:#181818;stroke-width:0.5;" width="152.1162" x="55.0637" y="738.1169"/><rect fill="#F1F1F1" height="10" style="stroke:#181818;stroke-width:0.5;" width="15" x="187.1799" y="743.1169"/><rect fill="#F1F1F1" height="2" style="stroke:#181818;stroke-width:0.5;" width="4" x="185.1799" y="745.1169"/><rect fill="#F1F1F1" height="2" style="stroke:#181818;stroke-width:0.5;" width="4" x="185.1799" y="749.1169"/><text fill="#000000" font-family="sans-serif" font-size="14" lengthAdjust="spacing" textLength="102.7715" x="70.0637" y="771.112">Authentication</text><text fill="#000000" font-family="sans-serif" font-size="14" lengthAdjust="spacing" textLength="112.1162" x="70.0637" y="787.4089">(JWT Validation)</text></g><!--entity RateLimit--><g class="entity" data-entity="RateLimit" data-source-line="17" data-uid="ent0014" id="entity_RateLimit"><rect fill="#F1F1F1" height="46.2969" rx="2.5" ry="2.5" style="stroke:#181818;stroke-width:0.5;" width="133.2148" x="242.5137" y="746.2569"/><rect fill="#F1F1F1" height="10" style="stroke:#181818;stroke-width:0.5;" width="15" x="355.7286" y="751.2569"/><rect fill="#F1F1F1" height="2" style="stroke:#181818;stroke-width:0.5;" width="4" x="353.7286" y="753.2569"/><rect fill="#F1F1F1" height="2" style="stroke:#181818;stroke-width:0.5;" width="4" x="353.7286" y="757.2569"/><text fill="#000000" font-family="sans-serif" font-size="14" lengthAdjust="spacing" textLength="93.2148" x="257.5137" y="779.252">Rate Limiting</text></g><!--entity Routing--><g class="entity" data-entity="Routing" data-source-line="18" data-uid="ent0015" id="entity_Routing"><rect fill="#F1F1F1" height="46.2969" rx="2.5" ry="2.5" style="stroke:#181818;stroke-width:0.5;" width="156.252" x="410.9937" y="746.2569"/><rect fill="#F1F1F1" height="10" style="stroke:#181818;stroke-width:0.5;" width="15" x="547.2457" y="751.2569"/><rect fill="#F1F1F1" height="2" style="stroke:#181818;stroke-width:0.5;" width="4" x="545.2457" y="753.2569"/><rect fill="#F1F1F1" height="2" style="stroke:#181818;stroke-width:0.5;" width="4" x="545.2457" y="757.2569"/><text fill="#000000" font-family="sans-serif" font-size="14" lengthAdjust="spacing" textLength="116.252" x="425.9937" y="779.252">Request Routing</text></g><!--entity CustomerAPI--><g class="entity" data-entity="CustomerAPI" data-source-line="22" data-uid="ent0017" id="entity_CustomerAPI"><rect fill="#F1F1F1" height="62.5938" rx="2.5" ry="2.5" style="stroke:#181818;stroke-width:0.5;" width="164.1953" x="615.0237" y="916.7069"/><rect fill="#F1F1F1" height="10" style="stroke:#181818;stroke-width:0.5;" width="15" x="759.219" y="921.7069"/><rect fill="#F1F1F1" height="2" style="stroke:#181818;stroke-width:0.5;" width="4" x="757.219" y="923.7069"/><rect fill="#F1F1F1" height="2" style="stroke:#181818;stroke-width:0.5;" width="4" x="757.219" y="927.7069"/><text fill="#000000" font-family="sans-serif" font-size="14" lengthAdjust="spacing" textLength="124.1953" x="630.0237" y="949.702">Customer Service</text><text fill="#000000" font-family="sans-serif" font-size="14" lengthAdjust="spacing" textLength="107.0029" x="630.0237" y="965.9989">(.NET Core API)</text></g><!--entity OrderAPI--><g class="entity" data-entity="OrderAPI" data-source-line="23" data-uid="ent0018" id="entity_OrderAPI"><rect fill="#F1F1F1" height="62.5938" rx="2.5" ry="2.5" style="stroke:#181818;stroke-width:0.5;" width="147.0029" x="432.6237" y="916.7069"/><rect fill="#F1F1F1" height="10" style="stroke:#181818;stroke-width:0.5;" width="15" x="559.6267" y="921.7069"/><rect fill="#F1F1F1" height="2" style="stroke:#181818;stroke-width:0.5;" width="4" x="557.6267" y="923.7069"/><rect fill="#F1F1F1" height="2" style="stroke:#181818;stroke-width:0.5;" width="4" x="557.6267" y="927.7069"/><text fill="#000000" font-family="sans-serif" font-size="14" lengthAdjust="spacing" textLength="96.2227" x="447.6237" y="949.702">Order Service</text><text fill="#000000" font-family="sans-serif" font-size="14" lengthAdjust="spacing" textLength="107.0029" x="447.6237" y="965.9989">(.NET Core API)</text></g><!--entity ProductAPI--><g class="entity" data-entity="ProductAPI" data-source-line="24" data-uid="ent0019" id="entity_ProductAPI"><rect fill="#F1F1F1" height="62.5938" rx="2.5" ry="2.5" style="stroke:#181818;stroke-width:0.5;" width="149.9014" x="814.1737" y="916.7069"/><rect fill="#F1F1F1" height="10" style="stroke:#181818;stroke-width:0.5;" width="15" x="944.0751" y="921.7069"/><rect fill="#F1F1F1" height="2" style="stroke:#181818;stroke-width:0.5;" width="4" x="942.0751" y="923.7069"/><rect fill="#F1F1F1" height="2" style="stroke:#181818;stroke-width:0.5;" width="4" x="942.0751" y="927.7069"/><text fill="#000000" font-family="sans-serif" font-size="14" lengthAdjust="spacing" textLength="109.9014" x="829.1737" y="949.702">Product Service</text><text fill="#000000" font-family="sans-serif" font-size="14" lengthAdjust="spacing" textLength="107.0029" x="829.1737" y="965.9989">(.NET Core API)</text></g><!--entity NotificationAPI--><g class="entity" data-entity="NotificationAPI" data-source-line="25" data-uid="ent0020" id="entity_NotificationAPI"><rect fill="#F1F1F1" height="62.5938" rx="2.5" ry="2.5" style="stroke:#181818;stroke-width:0.5;" width="176.5205" x="220.8637" y="916.7069"/><rect fill="#F1F1F1" height="10" style="stroke:#181818;stroke-width:0.5;" width="15" x="377.3842" y="921.7069"/><rect fill="#F1F1F1" height="2" style="stroke:#181818;stroke-width:0.5;" width="4" x="375.3842" y="923.7069"/><rect fill="#F1F1F1" height="2" style="stroke:#181818;stroke-width:0.5;" width="4" x="375.3842" y="927.7069"/><text fill="#000000" font-family="sans-serif" font-size="14" lengthAdjust="spacing" textLength="136.5205" x="235.8637" y="949.702">Notification Service</text><text fill="#000000" font-family="sans-serif" font-size="14" lengthAdjust="spacing" textLength="107.0029" x="235.8637" y="965.9989">(.NET Core API)</text></g><!--entity IdentityAPI--><g class="entity" data-entity="IdentityAPI" data-source-line="26" data-uid="ent0021" id="entity_IdentityAPI"><rect fill="#F1F1F1" height="62.5938" rx="2.5" ry="2.5" style="stroke:#181818;stroke-width:0.5;" width="149.8467" x="999.2037" y="916.7069"/><rect fill="#F1F1F1" height="10" style="stroke:#181818;stroke-width:0.5;" width="15" x="1129.0504" y="921.7069"/><rect fill="#F1F1F1" height="2" style="stroke:#181818;stroke-width:0.5;" width="4" x="1127.0504" y="923.7069"/><rect fill="#F1F1F1" height="2" style="stroke:#181818;stroke-width:0.5;" width="4" x="1127.0504" y="927.7069"/><text fill="#000000" font-family="sans-serif" font-size="14" lengthAdjust="spacing" textLength="109.8467" x="1014.2037" y="949.702">Identity Service</text><text fill="#000000" font-family="sans-serif" font-size="14" lengthAdjust="spacing" textLength="107.0029" x="1014.2037" y="965.9989">(.NET Core API)</text></g><!--entity CustomerDB--><g class="entity" data-entity="CustomerDB" data-source-line="30" data-uid="ent0023" id="entity_CustomerDB"><rect fill="#F1F1F1" height="46.2969" rx="2.5" ry="2.5" style="stroke:#181818;stroke-width:0.5;" width="132.8389" x="661.7037" y="1094.2969"/><rect fill="#F1F1F1" height="10" style="stroke:#181818;stroke-width:0.5;" width="15" x="774.5426" y="1099.2969"/><rect fill="#F1F1F1" height="2" style="stroke:#181818;stroke-width:0.5;" width="4" x="772.5426" y="1101.2969"/><rect fill="#F1F1F1" height="2" style="stroke:#181818;stroke-width:0.5;" width="4" x="772.5426" y="1105.2969"/><text fill="#000000" font-family="sans-serif" font-size="14" lengthAdjust="spacing" textLength="92.8389" x="676.7037" y="1127.292">Customer DB</text></g><!--entity OrderDB--><g class="entity" data-entity="OrderDB" data-source-line="31" data-uid="ent0024" id="entity_OrderDB"><rect fill="#F1F1F1" height="46.2969" rx="2.5" ry="2.5" style="stroke:#181818;stroke-width:0.5;" width="104.8662" x="521.6937" y="1094.2969"/><rect fill="#F1F1F1" height="10" style="stroke:#181818;stroke-width:0.5;" width="15" x="606.5599" y="1099.2969"/><rect fill="#F1F1F1" height="2" style="stroke:#181818;stroke-width:0.5;" width="4" x="604.5599" y="1101.2969"/><rect fill="#F1F1F1" height="2" style="stroke:#181818;stroke-width:0.5;" width="4" x="604.5599" y="1105.2969"/><text fill="#000000" font-family="sans-serif" font-size="14" lengthAdjust="spacing" textLength="64.8662" x="536.6937" y="1127.292">Order DB</text></g><!--entity ProductDB--><g class="entity" data-entity="ProductDB" data-source-line="32" data-uid="ent0025" id="entity_ProductDB"><rect fill="#F1F1F1" height="46.2969" rx="2.5" ry="2.5" style="stroke:#181818;stroke-width:0.5;" width="118.5449" x="829.8537" y="1094.2969"/><rect fill="#F1F1F1" height="10" style="stroke:#181818;stroke-width:0.5;" width="15" x="928.3986" y="1099.2969"/><rect fill="#F1F1F1" height="2" style="stroke:#181818;stroke-width:0.5;" width="4" x="926.3986" y="1101.2969"/><rect fill="#F1F1F1" height="2" style="stroke:#181818;stroke-width:0.5;" width="4" x="926.3986" y="1105.2969"/><text fill="#000000" font-family="sans-serif" font-size="14" lengthAdjust="spacing" textLength="78.5449" x="844.8537" y="1127.292">Product DB</text></g><!--entity IdentityDB--><g class="entity" data-entity="IdentityDB" data-source-line="33" data-uid="ent0026" id="entity_IdentityDB"><rect fill="#F1F1F1" height="46.2969" rx="2.5" ry="2.5" style="stroke:#181818;stroke-width:0.5;" width="118.4902" x="983.8737" y="1094.2969"/><rect fill="#F1F1F1" height="10" style="stroke:#181818;stroke-width:0.5;" width="15" x="1082.364" y="1099.2969"/><rect fill="#F1F1F1" height="2" style="stroke:#181818;stroke-width:0.5;" width="4" x="1080.364" y="1101.2969"/><rect fill="#F1F1F1" height="2" style="stroke:#181818;stroke-width:0.5;" width="4" x="1080.364" y="1105.2969"/><text fill="#000000" font-family="sans-serif" font-size="14" lengthAdjust="spacing" textLength="78.4902" x="998.8737" y="1127.292">Identity DB</text></g><g class="entity" data-entity="GMN52" data-source-line="77" data-uid="ent0053" id="entity_GMN52"><path d="M1623.4037,571.4769 L1623.4037,657.1409 L1814.8383,657.1409 L1814.8383,581.4769 L1804.8383,571.4769 L1623.4037,571.4769" fill="#FEFFDD" style="stroke:#181818;stroke-width:0.5;"/><path d="M1804.8383,571.4769 L1804.8383,581.4769 L1814.8383,581.4769 L1804.8383,571.4769" fill="#FEFFDD" style="stroke:#181818;stroke-width:1;"/><text fill="#000000" font-family="sans-serif" font-size="13" lengthAdjust="spacing" textLength="123.3604" x="1629.4037" y="588.5438">- HttpClientFactory</text><text fill="#000000" font-family="sans-serif" font-size="13" lengthAdjust="spacing" textLength="167.54" x="1629.4037" y="603.6766">- Base URLs configuration</text><text fill="#000000" font-family="sans-serif" font-size="13" lengthAdjust="spacing" textLength="113.0264" x="1629.4037" y="618.8094">- Default headers</text><text fill="#000000" font-family="sans-serif" font-size="13" lengthAdjust="spacing" textLength="118.3013" x="1629.4037" y="633.9422">- Timeout settings</text><text fill="#000000" font-family="sans-serif" font-size="13" lengthAdjust="spacing" textLength="170.4346" x="1629.4037" y="649.075">- SSL certificate validation</text></g><g class="entity" data-entity="GMN55" data-source-line="85" data-uid="ent0056" id="entity_GMN55"><path d="M1409.5737,571.4769 L1409.5737,657.1409 L1588.6685,657.1409 L1588.6685,581.4769 L1578.6685,571.4769 L1409.5737,571.4769" fill="#FEFFDD" style="stroke:#181818;stroke-width:0.5;"/><path d="M1578.6685,571.4769 L1578.6685,581.4769 L1588.6685,581.4769 L1578.6685,571.4769" fill="#FEFFDD" style="stroke:#181818;stroke-width:1;"/><text fill="#000000" font-family="sans-serif" font-size="13" lengthAdjust="spacing" textLength="124.5791" x="1415.5737" y="588.5438">- Single entry point</text><text fill="#000000" font-family="sans-serif" font-size="13" lengthAdjust="spacing" textLength="158.0947" x="1415.5737" y="603.6766">- Cross-cutting concerns</text><text fill="#000000" font-family="sans-serif" font-size="13" lengthAdjust="spacing" textLength="123.4683" x="1415.5737" y="618.8094">- Service discovery</text><text fill="#000000" font-family="sans-serif" font-size="13" lengthAdjust="spacing" textLength="105.5171" x="1415.5737" y="633.9422">- Circuit breaker</text><text fill="#000000" font-family="sans-serif" font-size="13" lengthAdjust="spacing" textLength="134.5259" x="1415.5737" y="649.075">- Monitoring/Logging</text></g><g class="entity" data-entity="GMN58" data-source-line="93" data-uid="ent0059" id="entity_GMN58"><path d="M297.5637,1074.6169 L297.5637,1160.2809 L486.6751,1160.2809 L486.6751,1084.6169 L476.6751,1074.6169 L297.5637,1074.6169" fill="#FEFFDD" style="stroke:#181818;stroke-width:0.5;"/><path d="M476.6751,1074.6169 L476.6751,1084.6169 L486.6751,1084.6169 L476.6751,1074.6169" fill="#FEFFDD" style="stroke:#181818;stroke-width:1;"/><text fill="#000000" font-family="sans-serif" font-size="13" lengthAdjust="spacing" textLength="127.2388" x="303.5637" y="1091.6838">- RESTful endpoints</text><text fill="#000000" font-family="sans-serif" font-size="13" lengthAdjust="spacing" textLength="168.1113" x="303.5637" y="1106.8166">- Swagger documentation</text><text fill="#000000" font-family="sans-serif" font-size="13" lengthAdjust="spacing" textLength="107.999" x="303.5637" y="1121.9494">- Data validation</text><text fill="#000000" font-family="sans-serif" font-size="13" lengthAdjust="spacing" textLength="100.8579" x="303.5637" y="1137.0822">- Business logic</text><text fill="#000000" font-family="sans-serif" font-size="13" lengthAdjust="spacing" textLength="144.1743" x="303.5637" y="1152.215">- Database operations</text></g><g class="entity" data-entity="GMN61" data-source-line="101" data-uid="ent0062" id="entity_GMN61"><path d="M1412.8137,734.1469 L1412.8137,804.6781 L1599.4304,804.6781 L1599.4304,744.1469 L1589.4304,734.1469 L1412.8137,734.1469" fill="#FEFFDD" style="stroke:#181818;stroke-width:0.5;"/><path d="M1589.4304,734.1469 L1589.4304,744.1469 L1599.4304,744.1469 L1589.4304,734.1469" fill="#FEFFDD" style="stroke:#181818;stroke-width:1;"/><text fill="#000000" font-family="sans-serif" font-size="13" lengthAdjust="spacing" textLength="165.6167" x="1418.8137" y="751.2138">- JWT token management</text><text fill="#000000" font-family="sans-serif" font-size="13" lengthAdjust="spacing" textLength="125.8994" x="1418.8137" y="766.3466">- Automatic refresh</text><text fill="#000000" font-family="sans-serif" font-size="13" lengthAdjust="spacing" textLength="107.3198" x="1418.8137" y="781.4794">- Secure storage</text><text fill="#000000" font-family="sans-serif" font-size="13" lengthAdjust="spacing" textLength="114.1055" x="1418.8137" y="796.6122">- Logout handling</text></g><!--link Views to ViewModels--><g class="link" data-entity-1="Views" data-entity-2="ViewModels" data-source-line="37" data-uid="lnk27" id="link_Views_ViewModels"><path d="M1103.1237,124.9669 C1103.1237,146.7569 1103.1237,173.5769 1103.1237,195.3269" fill="none" id="Views-to-ViewModels" style="stroke:#181818;stroke-width:1;"/><polygon fill="#181818" points="1103.1237,201.3269,1107.1237,192.3269,1103.1237,196.3269,1099.1237,192.3269,1103.1237,201.3269" style="stroke:#181818;stroke-width:1;"/><text fill="#000000" font-family="sans-serif" font-size="13" lengthAdjust="spacing" textLength="84.2969" x="1104.1237" y="167.6538">Data Binding</text></g><!--link ViewModels to AppServices--><g class="link" data-entity-1="ViewModels" data-entity-2="AppServices" data-source-line="38" data-uid="lnk28" id="link_ViewModels_AppServices"><path d="M1103.1237,248.2669 C1103.1237,270.0569 1103.1237,296.8769 1103.1237,318.6269" fill="none" id="ViewModels-to-AppServices" style="stroke:#181818;stroke-width:1;"/><polygon fill="#181818" points="1103.1237,324.6269,1107.1237,315.6269,1103.1237,319.6269,1099.1237,315.6269,1103.1237,324.6269" style="stroke:#181818;stroke-width:1;"/><text fill="#000000" font-family="sans-serif" font-size="13" lengthAdjust="spacing" textLength="132.9263" x="1104.1237" y="290.9538">Business Operations</text></g><!--link AppServices to ApiLayer--><g class="link" data-entity-1="AppServices" data-entity-2="ApiLayer" data-source-line="39" data-uid="lnk29" id="link_AppServices_ApiLayer"><path d="M1103.1237,371.5669 C1103.1237,393.3569 1103.1237,420.1769 1103.1237,441.9169" fill="none" id="AppServices-to-ApiLayer" style="stroke:#181818;stroke-width:1;"/><polygon fill="#181818" points="1103.1237,447.9169,1107.1237,438.9169,1103.1237,442.9169,1099.1237,438.9169,1103.1237,447.9169" style="stroke:#181818;stroke-width:1;"/><text fill="#000000" font-family="sans-serif" font-size="13" lengthAdjust="spacing" textLength="83.2178" x="1104.1237" y="414.2538">Service Calls</text></g><!--link ApiLayer to HttpClients--><g class="link" data-entity-1="ApiLayer" data-entity-2="HttpClients" data-source-line="40" data-uid="lnk30" id="link_ApiLayer_HttpClients"><path d="M1103.1237,494.6669 C1103.1237,521.0669 1103.1237,558.7269 1103.1237,585.0769" fill="none" id="ApiLayer-to-HttpClients" style="stroke:#181818;stroke-width:1;"/><polygon fill="#181818" points="1103.1237,591.0769,1107.1237,582.0769,1103.1237,586.0769,1099.1237,582.0769,1103.1237,591.0769" style="stroke:#181818;stroke-width:1;"/><text fill="#000000" font-family="sans-serif" font-size="13" lengthAdjust="spacing" textLength="97.792" x="1104.1237" y="537.5438">HTTP Requests</text></g><!--link HttpClients to AuthManager--><g class="link" data-entity-1="HttpClients" data-entity-2="AuthManager" data-source-line="43" data-uid="lnk31" id="link_HttpClients_AuthManager"><path d="M1103.1237,637.8969 C1103.1237,667.0169 1103.1237,711.3069 1103.1237,740.2269" fill="none" id="HttpClients-to-AuthManager" style="stroke:#181818;stroke-width:1;"/><polygon fill="#181818" points="1103.1237,746.2269,1107.1237,737.2269,1103.1237,741.2269,1099.1237,737.2269,1103.1237,746.2269" style="stroke:#181818;stroke-width:1;"/><text fill="#000000" font-family="sans-serif" font-size="13" lengthAdjust="spacing" textLength="95.7227" x="1104.1237" y="700.2138">Get JWT Token</text></g><!--link HttpClients to CacheManager--><g class="link" data-entity-1="HttpClients" data-entity-2="CacheManager" data-source-line="44" data-uid="lnk32" id="link_HttpClients_CacheManager"><path d="M1053.3637,637.8569 C1027.4437,650.6469 995.8837,667.9169 970.1237,687.1469 C946.8137,704.5369 927.7376,724.0492 912.2176,741.4492" fill="none" id="HttpClients-to-CacheManager" style="stroke:#181818;stroke-width:1;"/><polygon fill="#181818" points="908.2237,745.9269,917.1996,741.873,911.5519,742.1955,911.2294,736.5479,908.2237,745.9269" style="stroke:#181818;stroke-width:1;"/><text fill="#000000" font-family="sans-serif" font-size="13" lengthAdjust="spacing" textLength="123.5762" x="971.1237" y="700.2138">Check/Store Cache</text></g><!--link HttpClients to RetryPolicies--><g class="link" data-entity-1="HttpClients" data-entity-2="RetryPolicies" data-source-line="45" data-uid="lnk33" id="link_HttpClients_RetryPolicies"><path d="M1137.1337,637.6669 C1157.9037,651.5469 1184.8537,669.9469 1208.1237,687.1469 C1233.9837,706.2469 1257.8903,725.3671 1278.2003,741.9871" fill="none" id="HttpClients-to-RetryPolicies" style="stroke:#181818;stroke-width:1;"/><polygon fill="#181818" points="1282.8437,745.7869,1278.4118,736.9915,1278.9742,742.6204,1273.3454,743.1828,1282.8437,745.7869" style="stroke:#181818;stroke-width:1;"/><text fill="#000000" font-family="sans-serif" font-size="13" lengthAdjust="spacing" textLength="100.9976" x="1228.1237" y="700.2138">Handle Failures</text></g><!--link HttpClients to Gateway--><g class="link" data-entity-1="HttpClients" data-entity-2="Gateway" data-source-line="48" data-uid="lnk34" id="link_HttpClients_Gateway"><path d="M1038.5537,614.3069 C1004.5812,614.3069 960.0687,614.3069 912.1258,614.3069 C888.1543,614.3069 863.3252,614.3069 838.5271,614.3069 C826.1281,614.3069 813.7369,614.3069 801.4645,614.3069 C795.3283,614.3069 789.2218,614.3069 783.1589,614.3069 C780.1275,614.3069 777.107,614.3069 774.0991,614.3069 C772.5951,614.3069 771.0943,614.3069 769.5969,614.3069 C768.8482,614.3069 774.1003,614.3069 773.3533,614.3069" fill="none" id="HttpClients-to-Gateway" style="stroke:#181818;stroke-width:1;"/><polygon fill="#181818" points="767.3533,614.3069,776.3533,618.3069,772.3533,614.3069,776.3533,610.3069,767.3533,614.3069" style="stroke:#181818;stroke-width:1;"/><text fill="#000000" font-family="sans-serif" font-size="13" lengthAdjust="spacing" textLength="106.0439" x="756.2137" y="607.3738">HTTPS Requests</text></g><!--link Gateway to GatewayAuth--><g class="link" data-entity-1="Gateway" data-entity-2="GatewayAuth" data-source-line="49" data-uid="lnk35" id="link_Gateway_GatewayAuth"><path d="M578.9937,615.3269 C573.7137,615.9969 403.7137,637.9469 277.1237,687.1469 C242.6537,700.5469 211.4304,717.6396 183.6204,734.5496" fill="none" id="Gateway-to-GatewayAuth" style="stroke:#181818;stroke-width:1;"/><polygon fill="#181818" points="178.4937,737.6669,188.2619,736.4087,182.7659,735.0691,184.1055,729.5732,178.4937,737.6669" style="stroke:#181818;stroke-width:1;"/><text fill="#000000" font-family="sans-serif" font-size="13" lengthAdjust="spacing" textLength="97.189" x="278.1237" y="700.2138">Validate Token</text></g><!--link Gateway to RateLimit--><g class="link" data-entity-1="Gateway" data-entity-2="RateLimit" data-source-line="50" data-uid="lnk36" id="link_Gateway_RateLimit"><path d="M579.0537,615.3369 C575.9937,616.2269 477.6137,645.2469 408.1237,687.1469 C380.1337,704.0169 356.0622,724.2476 336.8722,741.8776" fill="none" id="Gateway-to-RateLimit" style="stroke:#181818;stroke-width:1;"/><polygon fill="#181818" points="332.4537,745.9369,341.7875,742.7936,336.1358,742.5542,336.3752,736.9024,332.4537,745.9369" style="stroke:#181818;stroke-width:1;"/><text fill="#000000" font-family="sans-serif" font-size="13" lengthAdjust="spacing" textLength="83.1226" x="409.1237" y="700.2138">Check Limits</text></g><!--link Gateway to LB--><g class="link" data-entity-1="Gateway" data-entity-2="LB" data-source-line="51" data-uid="lnk37" id="link_Gateway_LB"><path d="M579.1937,615.4269 C581.3137,618.9169 629.9384,698.969 655.2784,740.679" fill="none" id="Gateway-to-LB" style="stroke:#181818;stroke-width:1;"/><polygon fill="#181818" points="658.3937,745.8069,657.1393,736.0382,655.7976,741.5337,650.3022,740.192,658.3937,745.8069" style="stroke:#181818;stroke-width:1;"/><text fill="#000000" font-family="sans-serif" font-size="13" lengthAdjust="spacing" textLength="87.3945" x="632.1237" y="700.2138">Balance Load</text></g><!--link Gateway to Routing--><g class="link" data-entity-1="Gateway" data-entity-2="Routing" data-source-line="52" data-uid="lnk38" id="link_Gateway_Routing"><path d="M578.9837,615.4069 C576.1237,617.3669 530.0837,649.3869 509.1237,687.1469 C498.9637,705.4369 494.7704,722.9298 492.2904,739.9198" fill="none" id="Gateway-to-Routing" style="stroke:#181818;stroke-width:1;"/><polygon fill="#181818" points="491.4237,745.8569,496.6817,737.529,492.1459,740.9093,488.7656,736.3735,491.4237,745.8569" style="stroke:#181818;stroke-width:1;"/><text fill="#000000" font-family="sans-serif" font-size="13" lengthAdjust="spacing" textLength="107.6816" x="510.1237" y="700.2138">Route to Service</text></g><!--link Routing to CustomerAPI--><g class="link" data-entity-1="Routing" data-entity-2="CustomerAPI" data-source-line="55" data-uid="lnk39" id="link_Routing_CustomerAPI"><path d="M462.2437,792.9169 C440.6037,813.6769 416.8637,844.4069 437.1237,865.7069 C449.3937,878.6069 580.3537,867.7469 597.1237,873.7069 C622.6837,882.7869 642.7545,896.7648 661.1745,912.6048" fill="none" id="Routing-to-CustomerAPI" style="stroke:#181818;stroke-width:1;"/><polygon fill="#181818" points="665.7237,916.5169,661.5079,907.6159,661.9327,913.2568,656.2918,913.6816,665.7237,916.5169" style="stroke:#181818;stroke-width:1;"/><text fill="#000000" font-family="sans-serif" font-size="13" lengthAdjust="spacing" textLength="96.5796" x="438.1237" y="861.7738">/api/customers</text></g><!--link Routing to OrderAPI--><g class="link" data-entity-1="Routing" data-entity-2="OrderAPI" data-source-line="56" data-uid="lnk40" id="link_Routing_OrderAPI"><path d="M465.9737,792.7569 C447.7237,808.9369 420.8037,829.8269 393.1237,840.7069 C378.9637,846.2769 335.2337,837.3369 325.1237,848.7069 C320.1037,854.3569 320.0237,860.1369 325.1237,865.7069 C338.6737,880.5169 396.5037,866.1969 415.1237,873.7069 C438.6437,883.1869 456.5141,896.7751 473.1241,912.4051" fill="none" id="Routing-to-OrderAPI" style="stroke:#181818;stroke-width:1;"/><polygon fill="#181818" points="477.4937,916.5169,473.6805,907.4362,473.8524,913.0904,468.1982,913.2623,477.4937,916.5169" style="stroke:#181818;stroke-width:1;"/><text fill="#000000" font-family="sans-serif" font-size="13" lengthAdjust="spacing" textLength="70.2559" x="326.1237" y="861.7738">/api/orders</text></g><!--link Routing to ProductAPI--><g class="link" data-entity-1="Routing" data-entity-2="ProductAPI" data-source-line="57" data-uid="lnk41" id="link_Routing_ProductAPI"><path d="M511.7037,793.0269 C536.8637,816.4669 579.9937,851.6169 625.1237,865.7069 C661.6537,877.1069 761.3037,860.2369 797.1237,873.7069 C821.2137,882.7569 839.5082,896.5408 856.3082,912.3808" fill="none" id="Routing-to-ProductAPI" style="stroke:#181818;stroke-width:1;"/><polygon fill="#181818" points="860.6737,916.4969,856.8695,907.4124,857.0358,913.0668,851.3814,913.2331,860.6737,916.4969" style="stroke:#181818;stroke-width:1;"/><text fill="#000000" font-family="sans-serif" font-size="13" lengthAdjust="spacing" textLength="85.6489" x="626.1237" y="861.7738">/api/products</text></g><!--link Routing to NotificationAPI--><g class="link" data-entity-1="Routing" data-entity-2="NotificationAPI" data-source-line="58" data-uid="lnk42" id="link_Routing_NotificationAPI"><path d="M466.5737,793.0069 C448.4337,809.5669 421.3937,830.7969 393.1237,840.7069 C373.1837,847.6969 217.7437,833.4569 203.1237,848.7069 C180.4537,872.3469 203.2422,894.4363 236.1322,913.3463" fill="none" id="Routing-to-NotificationAPI" style="stroke:#181818;stroke-width:1;"/><polygon fill="#181818" points="241.3337,916.3369,235.5251,908.3832,236.9991,913.8447,231.5376,915.3187,241.3337,916.3369" style="stroke:#181818;stroke-width:1;"/><text fill="#000000" font-family="sans-serif" font-size="13" lengthAdjust="spacing" textLength="108.4688" x="204.1237" y="861.7738">/api/notifications</text></g><!--link Routing to IdentityAPI--><g class="link" data-entity-1="Routing" data-entity-2="IdentityAPI" data-source-line="59" data-uid="lnk43" id="link_Routing_IdentityAPI"><path d="M511.2337,792.8569 C529.3337,809.5669 556.5437,831.0769 585.1237,840.7069 C609.0837,848.7769 1019.6637,833.8569 1040.1237,848.7069 C1061.3137,864.0869 1068.6192,887.6297 1071.6492,910.3097" fill="none" id="Routing-to-IdentityAPI" style="stroke:#181818;stroke-width:1;"/><polygon fill="#181818" points="1072.4437,916.2569,1075.2167,906.8064,1071.7816,911.3009,1067.2872,907.8658,1072.4437,916.2569" style="stroke:#181818;stroke-width:1;"/><text fill="#000000" font-family="sans-serif" font-size="13" lengthAdjust="spacing" textLength="58.1318" x="1056.1237" y="861.7738">/api/auth</text></g><!--link CustomerAPI to CustomerDB--><g class="link" data-entity-1="CustomerAPI" data-entity-2="CustomerDB" data-source-line="62" data-uid="lnk44" id="link_CustomerAPI_CustomerDB"><path d="M702.8137,979.7169 C708.9237,1012.7569 717.4215,1058.6271 722.8715,1088.0671" fill="none" id="CustomerAPI-to-CustomerDB" style="stroke:#181818;stroke-width:1;"/><polygon fill="#181818" points="723.9637,1093.9669,726.2586,1084.3891,723.0536,1089.0504,718.3923,1085.8454,723.9637,1093.9669" style="stroke:#181818;stroke-width:1;"/><text fill="#000000" font-family="sans-serif" font-size="13" lengthAdjust="spacing" textLength="114.9941" x="712.1237" y="1024.3638">Entity Framework</text></g><!--link OrderAPI to OrderDB--><g class="link" data-entity-1="OrderAPI" data-entity-2="OrderDB" data-source-line="63" data-uid="lnk45" id="link_OrderAPI_OrderDB"><path d="M518.5937,979.7169 C532.0137,1012.7569 550.7755,1058.9681 562.7355,1088.4081" fill="none" id="OrderAPI-to-OrderDB" style="stroke:#181818;stroke-width:1;"/><polygon fill="#181818" points="564.9937,1093.9669,565.3122,1084.1232,563.1118,1089.3345,557.9005,1087.1342,564.9937,1093.9669" style="stroke:#181818;stroke-width:1;"/><text fill="#000000" font-family="sans-serif" font-size="13" lengthAdjust="spacing" textLength="114.9941" x="538.1237" y="1024.3638">Entity Framework</text></g><!--link ProductAPI to ProductDB--><g class="link" data-entity-1="ProductAPI" data-entity-2="ProductDB" data-source-line="64" data-uid="lnk46" id="link_ProductAPI_ProductDB"><path d="M889.1237,979.7169 C889.1237,1012.7569 889.1237,1058.5269 889.1237,1087.9669" fill="none" id="ProductAPI-to-ProductDB" style="stroke:#181818;stroke-width:1;"/><polygon fill="#181818" points="889.1237,1093.9669,893.1237,1084.9669,889.1237,1088.9669,885.1237,1084.9669,889.1237,1093.9669" style="stroke:#181818;stroke-width:1;"/><text fill="#000000" font-family="sans-serif" font-size="13" lengthAdjust="spacing" textLength="114.9941" x="890.1237" y="1024.3638">Entity Framework</text></g><!--link IdentityAPI to IdentityDB--><g class="link" data-entity-1="IdentityAPI" data-entity-2="IdentityDB" data-source-line="65" data-uid="lnk47" id="link_IdentityAPI_IdentityDB"><path d="M1068.4337,979.7169 C1062.3237,1012.7569 1053.8259,1058.6271 1048.3759,1088.0671" fill="none" id="IdentityAPI-to-IdentityDB" style="stroke:#181818;stroke-width:1;"/><polygon fill="#181818" points="1047.2837,1093.9669,1052.8552,1085.8454,1048.1939,1089.0504,1044.9888,1084.3891,1047.2837,1093.9669" style="stroke:#181818;stroke-width:1;"/><text fill="#000000" font-family="sans-serif" font-size="13" lengthAdjust="spacing" textLength="114.9941" x="1063.1237" y="1024.3638">Entity Framework</text></g><!--link AuthManager to IdentityAPI--><g class="link" data-entity-1="AuthManager" data-entity-2="IdentityAPI" data-source-line="68" data-uid="lnk48" id="link_AuthManager_IdentityAPI"><path d="M1137.5837,792.9169 C1161.4637,807.8469 1194.3837,827.1169 1225.1237,840.7069 C1235.7937,845.4269 1243.2437,839.2869 1250.1237,848.7069 C1254.5737,854.8069 1254.1937,859.3369 1250.1237,865.7069 C1227.8137,900.5769 1192.0443,918.929 1154.9443,930.439" fill="none" id="AuthManager-to-IdentityAPI" style="stroke:#181818;stroke-width:1;"/><polygon fill="#181818" points="1149.2137,932.2169,1158.9948,933.3705,1153.9892,930.7353,1156.6243,925.7297,1149.2137,932.2169" style="stroke:#181818;stroke-width:1;"/><text fill="#000000" font-family="sans-serif" font-size="13" lengthAdjust="spacing" textLength="133.4341" x="1254.1237" y="861.7738">Login/Refresh Token</text></g><!--link IdentityAPI to AuthManager--><g class="link" data-entity-1="IdentityAPI" data-entity-2="AuthManager" data-source-line="69" data-uid="lnk49" id="link_IdentityAPI_AuthManager"><path d="M1107.5137,916.2269 C1120.3137,902.2169 1133.4337,884.5569 1140.1237,865.7069 C1149.0237,840.6169 1138.2097,817.1396 1124.8997,797.9196" fill="none" id="IdentityAPI-to-AuthManager" style="stroke:#181818;stroke-width:1;"/><polygon fill="#181818" points="1121.4837,792.9869,1123.3192,802.6632,1124.3303,797.0975,1129.8961,798.1086,1121.4837,792.9869" style="stroke:#181818;stroke-width:1;"/><text fill="#000000" font-family="sans-serif" font-size="13" lengthAdjust="spacing" textLength="68.4214" x="1143.1237" y="861.7738">JWT Token</text></g><!--link CacheManager to CustomerAPI--><g class="link" data-entity-1="CacheManager" data-entity-2="CustomerAPI" data-source-line="72" data-uid="lnk50" id="link_CacheManager_CustomerAPI"><path d="M851.6237,792.9069 C825.9037,807.7369 790.6737,826.8969 758.1237,840.7069 C747.3837,845.2569 741.5437,840.6269 733.1237,848.7069 C714.5037,866.5769 706.6483,888.985 702.2883,910.635" fill="none" id="CacheManager-to-CustomerAPI" style="stroke:#181818;stroke-width:1;"/><polygon fill="#181818" points="701.1037,916.5169,706.8018,908.4837,702.0908,911.6153,698.9593,906.9043,701.1037,916.5169" style="stroke:#181818;stroke-width:1;"/><text fill="#000000" font-family="sans-serif" font-size="13" lengthAdjust="spacing" textLength="142.8794" x="734.1237" y="861.7738">Cache Customer Data</text></g><!--link CacheManager to ProductAPI--><g class="link" data-entity-1="CacheManager" data-entity-2="ProductAPI" data-source-line="73" data-uid="lnk51" id="link_CacheManager_ProductAPI"><path d="M888.0237,793.0169 C887.3237,808.6469 886.4837,829.9369 886.1237,848.7069 C885.6937,871.4069 886.2357,891.0633 887.1357,910.4633" fill="none" id="CacheManager-to-ProductAPI" style="stroke:#181818;stroke-width:1;"/><polygon fill="#181818" points="887.4137,916.4569,890.9924,907.2812,887.182,911.4622,883.0009,907.6519,887.4137,916.4569" style="stroke:#181818;stroke-width:1;"/><text fill="#000000" font-family="sans-serif" font-size="13" lengthAdjust="spacing" textLength="148.4907" x="887.1237" y="861.7738">Cache Product Catalog</text></g><!--link HttpClients to GMN52--><g class="link" data-entity-1="HttpClients" data-entity-2="GMN52" data-source-line="77" data-uid="lnk54" id="link_HttpClients_GMN52"><path d="M1154.9937,590.7169 C1244.7337,553.1769 1434.1737,488.4069 1588.6237,532.7169 C1615.8537,540.5269 1642.9037,555.8569 1665.2537,571.1469" fill="none" id="HttpClients-GMN52" style="stroke:#181818;stroke-width:1;stroke-dasharray:7,7;"/></g><!--link Gateway to GMN55--><g class="link" data-entity-1="Gateway" data-entity-2="GMN55" data-source-line="85" data-uid="lnk57" id="link_Gateway_GMN55"><path d="M640.5107,586.8085 C641.7781,586.2832 643.06,585.7542 644.356,585.2221 C649.5399,583.0934 654.9486,580.9133 660.55,578.7056 C705.3612,561.0444 762.5087,541.6219 815.6237,532.7169 C938.3537,512.1369 1256.4437,496.8969 1375.6237,532.7169 C1401.7137,540.5569 1427.3737,555.8969 1448.4837,571.1769" fill="none" id="Gateway-GMN55" style="stroke:#181818;stroke-width:1;stroke-dasharray:7,7;"/></g><!--link CustomerAPI to GMN58--><g class="link" data-entity-1="CustomerAPI" data-entity-2="GMN58" data-source-line="93" data-uid="lnk60" id="link_CustomerAPI_GMN58"><path d="M649.4737,979.7869 C633.4237,988.7869 615.0337,997.7069 597.1237,1003.2969 C565.5437,1013.1569 553.6937,998.6569 523.1237,1011.2969 C488.7637,1025.5069 456.1337,1051.6469 432.0337,1074.3069" fill="none" id="CustomerAPI-GMN58" style="stroke:#181818;stroke-width:1;stroke-dasharray:7,7;"/></g><!--link GMN61 to AuthManager--><g class="link" data-entity-1="GMN61" data-entity-2="AuthManager" data-source-line="101" data-uid="lnk63" id="link_GMN61_AuthManager"><path d="M1461.6237,733.7169 C1437.6537,716.7869 1406.6837,698.3669 1375.6237,689.6269 C1318.7237,673.6169 1299.7537,674.4469 1242.6237,689.6269 C1201.7737,700.4869 1160.4137,726.4369 1133.4637,745.8069" fill="none" id="GMN61-AuthManager" style="stroke:#181818;stroke-width:1;stroke-dasharray:7,7;"/></g><!--SRC=[XLRDSjis4BxpANPyIN9GTSyXCvPa9yv8gKTIqaER0mn24aOam12WDPfEdwQ7F8XVhBlu8S6VEZmHYsyN-_i1Ljf2m5ANZPASlVny-LV3vlRh0wo4ELjT0TSbR2IljH7ritpvgGtyzkLkZogroBAAyJCx2hZfwTnMLO7MhDJg1lxE03yqKsabb8K_lqbnCT-16N1_KziRdOkYm_Zb49YS0ZjoZWklWXjnFT9vV8XOMBEhg8E2T8iX-jD-_mZBGkB2M_vaRHNM8ykDFU5FT6Z35EObcCUji1vgBHa_YHxOIVu7lHMsliAZnh1bYDM9eYJx9yjuePiSRYZGZyoA2xlU42xyZwknrYo71IkOui63zUBrsFvIRp__iOTlh92v4xpxdfn0s97Vk0LhMKehrT6xZH8d68Vuen76mbOt7TZ_KtHTlxKjYLM6EwxDrLXHJhJRiZ5MbwAETKVtsmO6J9FtFg9GC3JmUvt_Ijj19bGVQvqttBwk740Jwb-qbOT1Yq_RI94JXXvoAf-zlcuaeiW0vXgBovwOmMIlmf-9wMstkkok5hqyhXO3eCzYGBd521Ap5K1XEOArmGHSN2CGlNxZwIibX_j2NpB7DJ2RVKWO1Tu3XGOBgN9gi6I7W0cF87BH6Ac4GUShKJl39aiHNiCJ2S8ZoonPKH0mR10gOH44Ef89RM_8_uHri43g88-DFozB5Trn7R6WeO_20WtcNf_569lo2eAN9y7Fyvsb1d1R8uKUiv2VJELuLTmpMJIrS9uc94DNYBz39ZsDA1_kheitRYGWYWg1WLz4Y2S5jkmH0_7aqhUsNb3HFB41iLpVXESKXD2V0AjZnLmBfUoIHQnBOySJg3jdbPpp8Ee38oL4bAPr7z8DVWHLNjA73MOxObKYxYiaSnp1Z5WP0ukJ3BUSKo-_xVEeLiNrNPR6cCQyeepU-TcxhrafBhe-PssWRTJJk2JQ9FXfR1f16j4qcZgnV_kwYK-dOvoMjJvADT-A0_RoAVJOyDZ-V7MpXGVIp52-TnPdKnolMM- -nftYB_gEBR4EOvLUGtYDo8bBL2ZqaOx6Vi2cnF8BgENnP44V1W-JMRA-Pno7_Ega2whyr-tQuDsGyWhjhSI1DOM5as2kKKcsbwN0lW8ZB3MN5-vsQy2dGcW-0S_jEo0JAWVoAnju5mRFgwCXf17q39yobPRAEl4Ikz3CUECE8lVm21KE34oQIyFrimYnB6ND6sI0frgmitigpM2ZbSHWqS8SotiaIX-uzAGj5e1ywb_uCzZUxVQ7fa37SkTLEFl2ZbITNFEcH9-JVD75aSJkyXkl2AoKv2tC3PpkRes1JuKuk2prduaprs-M-WrA9wNptGO2TOcsEDI-VKEQEF8oO5GrWfq8aq3bEn5pfydu3m00]--></g></svg>